<?xml version="1.0" encoding="utf-8"?>
<!-- Generator: Adobe Illustrator 17.1.0, SVG Export Plug-In . SVG Version: 6.00 Build 0)  -->
<!DOCTYPE svg PUBLIC "-//W3C//DTD SVG 1.1//EN" "http://www.w3.org/Graphics/SVG/1.1/DTD/svg11.dtd">
<svg version="1.1" id="Calque_1" xmlns="http://www.w3.org/2000/svg" xmlns:xlink="http://www.w3.org/1999/xlink" x="0px" y="0px"
	 viewBox="0 0 26 26" enable-background="new 0 0 26 26" xml:space="preserve">
<circle opacity="0.7" enable-background="new    " cx="13" cy="13" r="11.8" fill="#2e5ac4"/>
<path fill="#FFFFFF" d="M13,0C5.8,0,0,5.8,0,13c0,7.2,5.8,13,13,13c7.2,0,13-5.8,13-13C26,5.8,20.2,0,13,0z M20.5,20.5
	c-1.9,1.9-4.5,3.1-7.5,3.1c-2.9,0-5.5-1.2-7.5-3.1c-1.9-1.9-3.1-4.5-3.1-7.5c0-2.9,1.2-5.5,3.1-7.5c1.9-1.9,4.5-3.1,7.5-3.1
	c2.9,0,5.5,1.2,7.5,3.1c1.9,1.9,3.1,4.5,3.1,7.5C23.5,15.9,22.4,18.5,20.5,20.5z"/>
<path fill="#FFFFFF" d="M14.7,13l4.5-4.5c0.5-0.5,0.5-1.3,0-1.7s-1.3-0.5-1.7,0L13,11.3L8.5,6.8C8,6.3,7.2,6.3,6.8,6.8
	S6.3,8,6.8,8.5l4.5,4.5l-4.5,4.5c-0.5,0.5-0.5,1.3,0,1.7s1.3,0.5,1.7,0l4.5-4.5l4.5,4.5c0.5,0.5,1.3,0.5,1.7,0s0.5-1.3,0-1.7
	L14.7,13z"/>
</svg>
