<?xml version="1.0" encoding="utf-8"?>
<!-- Generator: Adobe Illustrator 17.1.0, SVG Export Plug-In . SVG Version: 6.00 Build 0)  -->
<!DOCTYPE svg PUBLIC "-//W3C//DTD SVG 1.1//EN" "http://www.w3.org/Graphics/SVG/1.1/DTD/svg11.dtd">
<svg version="1.1" id="Calque_1" xmlns="http://www.w3.org/2000/svg" xmlns:xlink="http://www.w3.org/1999/xlink" x="0px" y="0px"
	 viewBox="-388 0 678.6 86" enable-background="new -388 0 678.6 86" xml:space="preserve">
<g>
	<g>
		<g>
			<path fill="#BCBCBC" d="M62.9,21.7c-6.1,0-11.1,2.3-14.8,7l-0.4-5.4H41v51.9h7.8V61.1c3.7,4,8.7,6.4,14.2,6.4
				c11.2,0,20.4-10.3,20.4-22.9C83.3,32,74.1,21.7,62.9,21.7z M61.7,61.1c-7.3,0-13.3-7.4-13.3-16.5s6-16.5,13.3-16.5
				c7.3,0,13.3,7.4,13.3,16.5C75,53.7,69.1,61.1,61.7,61.1z"/>
		</g>
	</g>
	<g>
		<g>
			<path fill="#BCBCBC" d="M35.7,59.4l0.1-25.4c-0.3-4.5-1.6-6-2.9-7.4c-1.3-1.4-5.6-3.8-8.6-4.2c-3-0.4-7-1.2-12.6,0.4
				c-5.6,1.6-5.9,2.3-8.1,3.7l3.7,5.3c2-1.1,6.3-3,10-3c3.7,0,5.2,0.4,7.7,1.6c3.2,1.6,3,5.8,2.9,8.7c0,0-1,0-7.4,0.1
				c-6.4,0.1-8.7,1-11.6,2.1C6,42.7,2.1,46.1,1,49.1c-1.2,3-1.4,7.7-0.1,10.6c1.3,2.9,2.9,5,6.3,6.7c3.4,1.6,7.2,1.9,8.7,1.8
				c1.5-0.1,5.9-0.4,8.9-2.9c3-2.6,3.5-3.7,3.5-3.7l0.8,4.8l7.5,0C36,63.3,35.7,61.7,35.7,59.4z M27.9,53.3
				c-0.2,2.2-2.5,5.3-4.5,6.6c-2,1.3-3.8,2.3-7.8,2.3c-4,0-5.8-2.4-6.4-4.8c-0.6-2.4-0.5-5.4,1.7-8.7c2.2-3.3,6.7-4,8.9-4.1
				c2.2-0.1,8.2-0.1,8.2-0.1S28.1,51.1,27.9,53.3z"/>
		</g>
	</g>
	<g>
		<g>
			<path fill="#BCBCBC" d="M107.6,21.7c-6.1,0-11.1,2.3-14.8,7l-0.4-5.4h-6.7v51.9h7.8V61.2c3.7,4,8.7,6.5,14.2,6.5
				c11.3,0,20.4-10.3,20.4-22.9C128,32,118.9,21.7,107.6,21.7z M106.4,61.2c-7.3,0-13.3-7.4-13.3-16.5c0-9.1,6-16.5,13.3-16.5
				c7.3,0,13.3,7.4,13.3,16.5C119.8,53.8,113.8,61.2,106.4,61.2z"/>
		</g>
	</g>
	<path fill="#BCBCBC" d="M155.2,25.3l-3.1,5.2c-1.5-0.8-2.9-2.1-6.3-2.9c-3.7-0.9-5.2-0.1-6.5,0.7c-1.4,0.8-2.3,2.2-2.7,3.7
		c-0.4,1.6-0.1,3.8,0.9,4.9c1.2,1.3,2.8,1.9,5.4,3.4c2.6,1.5,7.5,3.4,9.8,5.5c2.2,2.2,3.1,4.2,3.4,6.8c0.3,2.6-0.1,5.4-0.9,7.3
		c-0.7,1.8-1.7,3.6-4,5.2c-2.5,1.8-6.2,2.8-9.8,2.9c-3.7,0.1-6.1-0.6-8.6-1.4c-2.5-0.7-3.7-1.3-5.7-2.2l3-6.2
		c2.2,1.2,4.9,2.3,7.2,2.7c2.3,0.4,4.4,0.4,6.2-0.2c1.8-0.7,3.2-2,3.9-3.3c0.7-1.3,0.7-2.8,0.2-4.1c-0.5-1.4-1.3-1.9-3.5-3.4
		c-2.2-1.4-7-3.4-9.5-5.1c-2.5-1.7-4.1-3.2-5.1-5.4c-1-2.2-1.1-4.7-0.6-7c0.5-2.3,1.5-4.2,2.8-5.9c1.4-1.6,3.1-2.9,5.1-3.6
		c3.9-1.5,8.7-1.7,12.8-0.3C151.7,23.4,153.7,24.2,155.2,25.3L155.2,25.3z"/>
	<path fill="#BCBCBC" d="M184.8,1.3l4.6,0v9.8l-1.6,0c-3.3,0-5.9,2.2-6.1,5.4l0,0.6l0,6.3h8.6v10.2h-8.6v32.7h-12.9V33.6h-7.9V23.4
		h7.9v-6.6l0,0c0,0,0-0.1,0-0.1C168.7,8.2,176,1.3,184.8,1.3L184.8,1.3z"/>
	<polygon fill="#BCBCBC" points="196.9,23.3 209.6,23.3 209.6,66.3 196.9,66.3 	"/>
	<path fill="#BCBCBC" d="M219.2,23.3H232v7.3c0.7-1.2,1.6-2.7,2.4-3.8c1.6-2.3,3-3.6,5.1-4.4c2.1-0.7,7.8-0.5,7.8-0.5l0,11.6
		c-4.4,0-10.5-1-13.5,3.2c-1.3,1.7-1.7,3.6-1.8,6.1v23.5h-12.7V23.3L219.2,23.3z"/>
	<g>
		<g>
			<path fill="#BCBCBC" d="M288.9,33c-4.3-9-13.5-10.9-18-11.1c-12.2-0.3-22.2,10.1-22.2,23c-0.6,12.9,9.2,23.3,22.2,23
				c4.3-0.1,9.7-0.2,15.6-3.3l0.1-10.3c-6.8,4.9-12.7,4.7-15.6,4.5c-4.5,0-8.4-4-9.4-10.5h28.9C290.8,41.2,290.3,36,288.9,33z
				 M261.8,40.4c0.4-5.9,3.4-10.2,9.1-10.2c5.2,0,8,3.7,8.2,10.2H261.8z"/>
		</g>
	</g>
	<path fill="#BCBCBC" d="M194.4,8.5l8.1-8.1c0.6-0.6,1.5-0.6,2.1,0l8.1,8.1c0.6,0.6,0.6,1.5,0,2.1l-8.1,8.1c-0.6,0.6-1.5,0.6-2.1,0
		l-8.1-8.1C193.8,10,193.8,9.1,194.4,8.5L194.4,8.5z"/>
</g>
<g>
	<path fill="#BCBCBC" d="M-359.7,25.2c2.6-0.4,6.1-0.8,10.5-0.8c5.4,0,9.4,1.3,11.9,3.5c2.3,2,3.7,5.1,3.7,8.9c0,3.8-1.1,6.8-3.3,9
		c-2.9,3.1-7.6,4.6-12.9,4.6c-1.6,0-3.1-0.1-4.4-0.4v17h-5.5V25.2z M-354.2,45.6c1.2,0.3,2.7,0.4,4.5,0.4c6.6,0,10.6-3.2,10.6-9
		c0-5.6-4-8.3-10-8.3c-2.4,0-4.2,0.2-5.1,0.4V45.6z"/>
	<path fill="#BCBCBC" d="M-327.4,46.1c0-3.6-0.1-6.7-0.3-9.5h4.8l0.2,6h0.3c1.4-4.1,4.7-6.7,8.4-6.7c0.6,0,1.1,0.1,1.6,0.2v5.2
		c-0.6-0.1-1.1-0.2-1.9-0.2c-3.9,0-6.7,3-7.4,7.1c-0.1,0.8-0.3,1.6-0.3,2.6V67h-5.5V46.1z"/>
	<path fill="#BCBCBC" d="M-280,51.6c0,11.2-7.8,16.1-15.1,16.1c-8.2,0-14.6-6-14.6-15.6c0-10.2,6.7-16.1,15.1-16.1
		C-285.9,35.9-280,42.3-280,51.6z M-304.1,51.9c0,6.7,3.8,11.7,9.2,11.7c5.3,0,9.2-5,9.2-11.8c0-5.1-2.6-11.7-9.1-11.7
		C-301.3,40.1-304.1,46.1-304.1,51.9z"/>
	<path fill="#BCBCBC" d="M-273.1,44.9c0-3.1-0.1-5.7-0.3-8.2h4.8l0.3,4.9h0.2c1.7-2.9,4.5-5.6,9.5-5.6c4.1,0,7.3,2.5,8.6,6.1h0.1
		c0.9-1.7,2.1-3,3.4-4c1.8-1.4,3.8-2.1,6.7-2.1c4,0,10,2.6,10,13.2V67h-5.4V49.8c0-5.8-2.1-9.4-6.6-9.4c-3.1,0-5.6,2.3-6.5,5
		c-0.3,0.8-0.4,1.8-0.4,2.8V67h-5.4V48.8c0-4.8-2.1-8.4-6.3-8.4c-3.5,0-6,2.8-6.8,5.5c-0.3,0.8-0.4,1.8-0.4,2.7V67h-5.4V44.9z"/>
	<path fill="#BCBCBC" d="M-193.2,51.6c0,11.2-7.8,16.1-15.1,16.1c-8.2,0-14.6-6-14.6-15.6c0-10.2,6.7-16.1,15.1-16.1
		C-199.1,35.9-193.2,42.3-193.2,51.6z M-217.3,51.9c0,6.7,3.8,11.7,9.2,11.7c5.3,0,9.2-5,9.2-11.8c0-5.1-2.6-11.7-9.1-11.7
		S-217.3,46.1-217.3,51.9z"/>
	<path fill="#BCBCBC" d="M-179.6,27.9v8.7h7.9v4.2h-7.9v16.4c0,3.8,1.1,5.9,4.1,5.9c1.4,0,2.5-0.2,3.2-0.4l0.3,4.1
		c-1.1,0.4-2.8,0.8-4.9,0.8c-2.6,0-4.6-0.8-6-2.3c-1.6-1.6-2.1-4.3-2.1-7.9V40.8h-4.7v-4.2h4.7v-7.3L-179.6,27.9z"/>
	<path fill="#BCBCBC" d="M-162.7,52.8c0.1,7.5,4.9,10.5,10.4,10.5c4,0,6.3-0.7,8.4-1.6l0.9,4c-1.9,0.9-5.3,1.9-10.1,1.9
		c-9.4,0-14.9-6.2-14.9-15.3s5.4-16.4,14.3-16.4c9.9,0,12.6,8.7,12.6,14.3c0,1.1-0.1,2-0.2,2.6H-162.7z M-146.5,48.9
		c0.1-3.5-1.4-9-7.7-9c-5.6,0-8,5.1-8.5,9H-146.5z"/>
	<path fill="#BCBCBC" d="M-108.1,22.4v36.7c0,2.7,0.1,5.8,0.3,7.8h-5l-0.3-5.3h-0.1c-1.7,3.4-5.4,6-10.4,6c-7.3,0-13-6.2-13-15.4
		c-0.1-10.1,6.2-16.3,13.6-16.3c4.6,0,7.8,2.2,9.2,4.6h0.1V22.4H-108.1z M-113.6,49c0-0.7-0.1-1.6-0.3-2.3c-0.8-3.5-3.8-6.4-8-6.4
		c-5.7,0-9.1,5-9.1,11.7c0,6.2,3,11.2,9,11.2c3.7,0,7.1-2.4,8.1-6.6c0.2-0.8,0.3-1.5,0.3-2.4V49z"/>
	<path fill="#BCBCBC" d="M-85.9,67c0.1-2.1,0.3-5.1,0.3-7.8V22.4h5.5v19.1h0.1c1.9-3.4,5.5-5.6,10.4-5.6c7.5,0,12.9,6.3,12.8,15.5
		c0,10.9-6.8,16.3-13.6,16.3c-4.4,0-7.9-1.7-10.2-5.7h-0.2l-0.3,5H-85.9z M-80.2,54.8c0,0.7,0.1,1.4,0.3,2c1.1,3.8,4.3,6.5,8.3,6.5
		c5.8,0,9.2-4.7,9.2-11.7c0-6.1-3.1-11.3-9-11.3c-3.8,0-7.3,2.6-8.4,6.8c-0.1,0.6-0.3,1.4-0.3,2.3V54.8z"/>
	<path fill="#BCBCBC" d="M-48.3,36.6l6.7,18c0.7,2,1.4,4.4,1.9,6.2h0.1c0.6-1.8,1.2-4.1,1.9-6.3l6-17.8h5.8l-8.3,21.7
		c-4,10.4-6.7,15.8-10.4,19c-2.7,2.4-5.4,3.3-6.8,3.6l-1.4-4.6c1.4-0.4,3.2-1.3,4.8-2.7c1.5-1.2,3.4-3.3,4.6-6.2
		c0.3-0.6,0.4-1,0.4-1.3c0-0.3-0.1-0.8-0.4-1.4l-11.2-28H-48.3z"/>
</g>
</svg>
