<?xml version="1.0" encoding="utf-8"?>
<!-- Generator: Adobe Illustrator 16.0.0, SVG Export Plug-In . SVG Version: 6.00 Build 0)  -->
<!DOCTYPE svg PUBLIC "-//W3C//DTD SVG 1.1//EN" "http://www.w3.org/Graphics/SVG/1.1/DTD/svg11.dtd">
<svg version="1.1" id="Calque_1" xmlns="http://www.w3.org/2000/svg" xmlns:xlink="http://www.w3.org/1999/xlink" x="0px" y="0px"
	 width="444px" height="69px" viewBox="0 0 444 69" enable-background="new 0 0 444 69" xml:space="preserve">
<g>
	<path fill="#2F2E2E" d="M27.6,3.32h11.61l27.72,63.72H51.09l-5.49-13.5H20.85l-5.31,13.5H0.06L27.6,3.32z M33,21.86l-7.74,19.8
		h15.57L33,21.86z"/>
	<path fill="#2F2E2E" d="M73.32,3.32h23.67c3.299,0,6.419,0.301,9.36,0.9c2.939,0.6,5.504,1.635,7.695,3.105
		c2.189,1.471,3.929,3.451,5.22,5.94c1.29,2.49,1.935,5.625,1.935,9.405c0,3.721-0.6,6.84-1.8,9.36
		c-1.201,2.52-2.851,4.53-4.95,6.029c-2.101,1.501-4.59,2.565-7.47,3.195c-2.88,0.63-6,0.945-9.36,0.945H87.36v24.84H73.32V3.32z
		 M87.36,30.32h9.36c1.26,0,2.475-0.119,3.645-0.36c1.17-0.239,2.219-0.644,3.15-1.215c0.93-0.57,1.679-1.35,2.25-2.34
		c0.57-0.99,0.855-2.235,0.855-3.735c0-1.62-0.375-2.925-1.125-3.915c-0.75-0.99-1.71-1.755-2.88-2.295s-2.475-0.884-3.915-1.035
		c-1.44-0.149-2.821-0.225-4.14-0.225h-7.2V30.32z"/>
	<path fill="#2F2E2E" d="M130.019,3.32h23.67c3.299,0,6.419,0.301,9.36,0.9c2.939,0.6,5.504,1.635,7.695,3.105
		c2.189,1.471,3.929,3.451,5.22,5.94c1.29,2.49,1.935,5.625,1.935,9.405c0,3.721-0.6,6.84-1.8,9.36
		c-1.201,2.52-2.851,4.53-4.95,6.029c-2.101,1.501-4.59,2.565-7.47,3.195c-2.88,0.63-6,0.945-9.36,0.945h-10.26v24.84h-14.04V3.32z
		 M144.059,30.32h9.36c1.26,0,2.475-0.119,3.645-0.36c1.17-0.239,2.219-0.644,3.15-1.215c0.93-0.57,1.679-1.35,2.25-2.34
		c0.57-0.99,0.855-2.235,0.855-3.735c0-1.62-0.375-2.925-1.125-3.915c-0.75-0.99-1.71-1.755-2.88-2.295s-2.475-0.884-3.915-1.035
		c-1.44-0.149-2.821-0.225-4.14-0.225h-7.2V30.32z"/>
</g>
<g>
	<path fill="#2F2E2E" d="M261.431,3.32h21.06c5.1,0,9.945,0.571,14.535,1.71c4.59,1.14,8.596,2.985,12.016,5.535
		c3.42,2.551,6.134,5.866,8.145,9.945c2.01,4.081,3.016,9.031,3.016,14.85c0,5.16-0.977,9.706-2.926,13.635
		c-1.95,3.931-4.576,7.23-7.875,9.9c-3.301,2.67-7.109,4.695-11.43,6.074c-4.32,1.381-8.852,2.07-13.59,2.07h-22.95V3.32z
		 M275.471,54.08h7.29c3.239,0,6.255-0.329,9.045-0.99c2.79-0.659,5.204-1.755,7.245-3.285c2.039-1.529,3.645-3.539,4.814-6.029
		c1.17-2.489,1.756-5.535,1.756-9.136c0-3.119-0.586-5.834-1.756-8.145c-1.17-2.309-2.744-4.215-4.725-5.715
		c-1.98-1.5-4.306-2.625-6.975-3.375c-2.671-0.75-5.477-1.125-8.416-1.125h-8.279V54.08z"/>
	<path fill="#2F2E2E" d="M350.71,3.32h11.61l27.719,63.72h-15.84l-5.489-13.5h-24.75l-5.31,13.5h-15.48L350.71,3.32z M356.109,21.86
		l-7.74,19.8h15.57L356.109,21.86z"/>
	<path fill="#2F2E2E" d="M405.431,39.86L381.49,3.32h17.461l13.5,23.85l14.31-23.85h16.649L419.471,39.86v27.18h-14.04V39.86z"/>
</g>
<g>
	<path fill="#2F2E2E" d="M198.681,31.854c0-1.53,0.257-2.916,0.77-4.158c0.513-1.242,1.229-2.299,2.146-3.173
		c0.918-0.873,2.007-1.543,3.267-2.011c1.26-0.468,2.637-0.702,4.132-0.702c1.493,0,2.87,0.234,4.131,0.702
		c1.26,0.468,2.349,1.139,3.267,2.011c0.918,0.874,1.634,1.931,2.146,3.173c0.513,1.242,0.77,2.628,0.77,4.158
		c0,1.53-0.257,2.916-0.77,4.158c-0.513,1.242-1.229,2.3-2.146,3.173c-0.918,0.874-2.007,1.544-3.267,2.012
		c-1.261,0.468-2.638,0.702-4.131,0.702c-1.495,0-2.872-0.234-4.132-0.702s-2.349-1.138-3.267-2.012
		c-0.918-0.873-1.634-1.931-2.146-3.173C198.938,34.77,198.681,33.384,198.681,31.854z M203.055,31.854
		c0,0.9,0.14,1.724,0.419,2.471c0.278,0.748,0.679,1.395,1.201,1.944c0.521,0.55,1.147,0.977,1.876,1.282
		c0.729,0.307,1.544,0.459,2.444,0.459c0.899,0,1.714-0.152,2.443-0.459c0.729-0.306,1.354-0.732,1.876-1.282
		c0.522-0.549,0.923-1.196,1.202-1.944c0.278-0.747,0.418-1.57,0.418-2.471c0-0.882-0.14-1.701-0.418-2.457
		c-0.279-0.756-0.68-1.408-1.202-1.958c-0.522-0.549-1.147-0.976-1.876-1.282c-0.729-0.306-1.544-0.459-2.443-0.459
		c-0.9,0-1.715,0.153-2.444,0.459c-0.729,0.306-1.354,0.733-1.876,1.282c-0.522,0.549-0.923,1.202-1.201,1.958
		C203.194,30.153,203.055,30.972,203.055,31.854z"/>
	<path fill="#2F2E2E" d="M222.333,22.296h12.824v3.888h-8.612v3.888h7.965v3.888h-7.965v7.452h-4.212V22.296z"/>
</g>
<g>
	<path fill="#2F2E2E" d="M199.491,49.534h-3.838v-2.622h10.64v2.622h-3.838v10.83h-2.964V49.534z"/>
	<path fill="#2F2E2E" d="M207.793,46.912h2.964v5.017h5.757v-5.017h2.964v13.452h-2.964V54.55h-5.757v5.814h-2.964V46.912z"/>
	<path fill="#2F2E2E" d="M222.328,46.912h9.139v2.736h-6.174v2.508h5.832v2.736h-5.832v2.735h6.516v2.736h-9.48V46.912z"/>
</g>
</svg>
