<?xml version="1.0" encoding="utf-8"?>
<!-- Generator: Adobe Illustrator 17.0.2, SVG Export Plug-In . SVG Version: 6.00 Build 0)  -->
<!DOCTYPE svg PUBLIC "-//W3C//DTD SVG 1.1//EN" "http://www.w3.org/Graphics/SVG/1.1/DTD/svg11.dtd">
<svg version="1.1" id="Layer_1" xmlns="http://www.w3.org/2000/svg" xmlns:xlink="http://www.w3.org/1999/xlink" x="0px" y="0px"
	 width="49px" height="12px" viewBox="0 0 49 12" enable-background="new 0 0 49 12" xml:space="preserve">
<g>
	<g>
		<path fill-rule="evenodd" clip-rule="evenodd" fill="#BCBCBC" d="M10.443,3.438c-0.999,0-1.824,0.363-2.44,1.117L7.928,3.694
			H6.833v8.252h1.278V9.704c0.605,0.634,1.428,1.025,2.331,1.025c1.851,0,3.361-1.637,3.361-3.645
			C13.803,5.076,12.294,3.438,10.443,3.438z M10.252,9.702c-1.207,0-2.191-1.177-2.191-2.619c0-1.442,0.984-2.619,2.191-2.619
			c1.207,0,2.191,1.177,2.191,2.619C12.443,8.526,11.458,9.702,10.252,9.702z M5.978,5.406c-0.05-0.714-0.27-0.952-0.479-1.178
			C5.29,4,4.577,3.63,4.081,3.567C3.586,3.503,2.928,3.378,2.008,3.635c-0.92,0.258-0.969,0.368-1.335,0.583l0.603,0.849
			c0.327-0.169,1.038-0.474,1.645-0.47c0.607,0.004,0.849,0.057,1.266,0.259C4.714,5.111,4.685,5.782,4.67,6.242
			c0,0-0.164,0-1.21,0.016C2.413,6.273,2.027,6.41,1.552,6.594C1.078,6.779,0.445,7.32,0.255,7.795
			c-0.19,0.475-0.232,1.229-0.019,1.691c0.212,0.461,0.476,0.8,1.032,1.062c0.556,0.261,1.187,0.297,1.432,0.281
			c0.245-0.015,0.964-0.059,1.462-0.465c0.498-0.407,0.582-0.587,0.582-0.587l0.138,0.756l1.232,0.005
			c-0.096-0.489-0.14-0.735-0.154-1.102L5.978,5.406z M4.681,8.459C4.648,8.813,4.262,9.305,3.936,9.505
			c-0.327,0.2-0.631,0.363-1.285,0.363c-0.654,0-0.957-0.385-1.059-0.77c-0.101-0.384-0.084-0.857,0.286-1.38
			c0.37-0.522,1.099-0.632,1.459-0.648c0.359-0.016,1.35-0.008,1.35-0.008S4.713,8.105,4.681,8.459z M17.801,3.447
			c-0.999,0-1.824,0.363-2.441,1.117l-0.074-0.861H14.19v8.243h1.279V9.713c0.605,0.634,1.427,1.025,2.331,1.025
			c1.851,0,3.361-1.638,3.361-3.646C21.161,5.085,19.652,3.447,17.801,3.447z M17.61,9.711c-1.207,0-2.191-1.176-2.191-2.619
			c0-1.443,0.984-2.619,2.191-2.619c1.207,0,2.191,1.176,2.191,2.619C19.8,8.536,18.817,9.711,17.61,9.711z M47.636,5.232
			c-0.703-1.429-2.22-1.734-2.955-1.771c-2.008-0.048-3.646,1.602-3.646,3.655c-0.104,2.052,1.516,3.703,3.646,3.655
			c0.704-0.018,1.596-0.033,2.562-0.531l0.01-1.643c-1.123,0.778-2.098,0.753-2.568,0.72c-0.745,0-1.377-0.642-1.54-1.672h4.759
			C47.954,6.542,47.856,5.718,47.636,5.232z M43.179,6.408c0.066-0.936,0.555-1.615,1.502-1.621c0.849,0,1.308,0.583,1.344,1.621
			H43.179z M25.228,7.288c-0.367-0.348-1.177-0.637-1.605-0.88c-0.429-0.243-0.705-0.335-0.897-0.543
			c-0.171-0.186-0.213-0.528-0.153-0.784c0.056-0.241,0.214-0.45,0.44-0.583c0.224-0.132,0.474-0.252,1.076-0.112
			c0.551,0.127,0.79,0.328,1.03,0.459l0.513-0.824c-0.248-0.182-0.578-0.307-0.886-0.412c-0.674-0.23-1.464-0.19-2.105,0.041
			c-0.331,0.119-0.616,0.315-0.843,0.575c-0.228,0.26-0.392,0.572-0.468,0.932c-0.075,0.36-0.056,0.764,0.105,1.109
			c0.161,0.345,0.422,0.583,0.835,0.859c0.413,0.276,1.198,0.584,1.559,0.812c0.361,0.229,0.489,0.319,0.572,0.538
			c0.084,0.217,0.084,0.447-0.036,0.656c-0.121,0.21-0.354,0.416-0.644,0.521c-0.29,0.105-0.641,0.103-1.015,0.037
			c-0.373-0.067-0.824-0.232-1.181-0.43l-0.5,0.982c0.328,0.146,0.529,0.237,0.937,0.355c0.408,0.119,0.808,0.234,1.412,0.22
			c0.604-0.013,1.206-0.169,1.619-0.458c0.378-0.263,0.549-0.554,0.659-0.833c0.118-0.3,0.198-0.753,0.142-1.16
			C25.737,7.955,25.596,7.638,25.228,7.288z M39.492,3.569c-0.34,0.114-0.56,0.333-0.831,0.694c-0.129,0.171-0.274,0.403-0.391,0.6
			V3.7h-2.098v6.833h2.098v-3.73c0.014-0.387,0.082-0.695,0.294-0.963c0.481-0.669,1.497-0.502,2.215-0.502l-0.003-1.85
			C40.775,3.487,39.83,3.454,39.492,3.569z M32.492,10.533h2.097V3.7h-2.097V10.533z M29.983,2.721l0.003-0.097
			c0.042-0.502,0.471-0.858,1.008-0.858l0.268,0.001V0.201l-0.76-0.003c-1.455,0-2.641,1.101-2.641,2.45v1.067h-1.295v1.616h1.295
			v5.201h2.124V5.332H31.4V3.716h-1.415L29.983,2.721z M33.756,0.063c-0.093-0.09-0.246-0.09-0.34,0l-1.335,1.288
			c-0.093,0.091-0.093,0.238,0,0.328l1.335,1.29c0.094,0.09,0.246,0.09,0.34,0l1.335-1.29c0.093-0.09,0.093-0.237,0-0.328
			L33.756,0.063z"/>
	</g>
</g>
</svg>
