<?xml version="1.0" encoding="utf-8"?>
<!-- Generator: Adobe Illustrator 17.1.0, SVG Export Plug-In . SVG Version: 6.00 Build 0)  -->
<!DOCTYPE svg PUBLIC "-//W3C//DTD SVG 1.1//EN" "http://www.w3.org/Graphics/SVG/1.1/DTD/svg11.dtd">
<svg version="1.1" id="Calque_1" xmlns="http://www.w3.org/2000/svg" xmlns:xlink="http://www.w3.org/1999/xlink" x="0px" y="0px"
	 viewBox="0 0 114 108" enable-background="new 0 0 114 108" xml:space="preserve">
<g>
	<path fill="#3E3E3E" d="M17.5,0h7.3l17.5,40.2h-10l-3.5-8.5H13.3l-3.4,8.5H0.2L17.5,0z M20.9,11.7l-4.9,12.5h9.8L20.9,11.7z"/>
	<path fill="#3E3E3E" d="M46.4,0h14.9c2.1,0,4.1,0.2,5.9,0.6c1.9,0.4,3.5,1,4.9,2c1.4,0.9,2.5,2.2,3.3,3.7c0.8,1.6,1.2,3.6,1.2,5.9
		c0,2.3-0.4,4.3-1.1,5.9c-0.8,1.6-1.8,2.9-3.1,3.8c-1.3,0.9-2.9,1.6-4.7,2c-1.8,0.4-3.8,0.6-5.9,0.6h-6.5v15.7h-8.9L46.4,0L46.4,0z
		 M55.2,17h5.9c0.8,0,1.6-0.1,2.3-0.2c0.7-0.2,1.4-0.4,2-0.8c0.6-0.4,1.1-0.9,1.4-1.5c0.4-0.6,0.5-1.4,0.5-2.4c0-1-0.2-1.8-0.7-2.5
		c-0.5-0.6-1.1-1.1-1.8-1.4c-0.7-0.3-1.6-0.6-2.5-0.7c-0.9-0.1-1.8-0.1-2.6-0.1h-4.5C55.2,7.5,55.2,17,55.2,17z"/>
	<path fill="#3E3E3E" d="M82.2,0h14.9c2.1,0,4.1,0.2,5.9,0.6c1.9,0.4,3.5,1,4.9,2c1.4,0.9,2.5,2.2,3.3,3.7c0.8,1.6,1.2,3.6,1.2,5.9
		c0,2.3-0.4,4.3-1.1,5.9c-0.8,1.6-1.8,2.9-3.1,3.8c-1.3,0.9-2.9,1.6-4.7,2c-1.8,0.4-3.8,0.6-5.9,0.6H91v15.7h-8.9L82.2,0L82.2,0z
		 M91,17h5.9c0.8,0,1.6-0.1,2.3-0.2c0.7-0.2,1.4-0.4,2-0.8c0.6-0.4,1.1-0.9,1.4-1.5c0.4-0.6,0.5-1.4,0.5-2.4c0-1-0.2-1.8-0.7-2.5
		s-1.1-1.1-1.8-1.4c-0.7-0.3-1.6-0.6-2.5-0.7c-0.9-0.1-1.8-0.1-2.6-0.1H91V17z"/>
</g>
<g>
	<path fill="#3E3E3E" d="M0.2,67.5h13c3.1,0,6.1,0.4,9,1.1c2.8,0.7,5.3,1.8,7.4,3.4c2.1,1.6,3.8,3.6,5,6.1c1.2,2.5,1.9,5.6,1.9,9.2
		c0,3.2-0.6,6-1.8,8.4c-1.2,2.4-2.8,4.5-4.9,6.1c-2,1.6-4.4,2.9-7,3.7c-2.7,0.9-5.5,1.3-8.4,1.3H0.2V67.5z M8.8,98.8h4.5
		c2,0,3.9-0.2,5.6-0.6c1.7-0.4,3.2-1.1,4.5-2c1.3-0.9,2.2-2.2,3-3.7c0.7-1.5,1.1-3.4,1.1-5.6c0-1.9-0.4-3.6-1.1-5
		c-0.7-1.4-1.7-2.6-2.9-3.5c-1.2-0.9-2.7-1.6-4.3-2.1c-1.6-0.5-3.4-0.7-5.2-0.7H8.8V98.8z"/>
	<path fill="#3E3E3E" d="M55.2,67.5h7.2l17.1,39.3h-9.8l-3.4-8.3H51l-3.3,8.3h-9.5L55.2,67.5z M58.5,78.9l-4.8,12.2h9.6L58.5,78.9z"
		/>
	<path fill="#3E3E3E" d="M88.9,90L74.1,67.5h10.8l8.3,14.7l8.8-14.7h10.3L97.5,90v16.7h-8.7L88.9,90L88.9,90z"/>
</g>
<g>
	<path fill="#3E3E3E" d="M0,54.1c0-1.4,0.2-2.7,0.7-3.8c0.5-1.1,1.1-2.1,2-2.9c0.8-0.8,1.8-1.4,3-1.8c1.2-0.4,2.4-0.6,3.8-0.6
		s2.6,0.2,3.8,0.6s2.2,1,3,1.8c0.8,0.8,1.5,1.8,2,2.9c0.5,1.1,0.7,2.4,0.7,3.8c0,1.4-0.2,2.7-0.7,3.8c-0.5,1.1-1.1,2.1-2,2.9
		c-0.8,0.8-1.8,1.4-3,1.8s-2.4,0.6-3.8,0.6s-2.6-0.2-3.8-0.6c-1.2-0.4-2.2-1-3-1.8c-0.8-0.8-1.5-1.8-2-2.9C0.2,56.8,0,55.5,0,54.1z
		 M4,54.1c0,0.8,0.1,1.6,0.4,2.3c0.3,0.7,0.6,1.3,1.1,1.8c0.5,0.5,1.1,0.9,1.7,1.2s1.4,0.4,2.2,0.4c0.8,0,1.6-0.1,2.2-0.4
		s1.2-0.7,1.7-1.2c0.5-0.5,0.8-1.1,1.1-1.8c0.3-0.7,0.4-1.4,0.4-2.3c0-0.8-0.1-1.6-0.4-2.3c-0.3-0.7-0.6-1.3-1.1-1.8
		c-0.5-0.5-1.1-0.9-1.7-1.2c-0.7-0.3-1.4-0.4-2.2-0.4c-0.8,0-1.6,0.1-2.2,0.4c-0.7,0.3-1.2,0.7-1.7,1.2c-0.5,0.5-0.8,1.1-1.1,1.8
		C4.1,52.6,4,53.3,4,54.1z"/>
	<path fill="#3E3E3E" d="M25,45.3h11.8v3.6h-7.9v3.6h7.3v3.6h-7.3v6.8H25L25,45.3L25,45.3z"/>
	<path fill="#3E3E3E" d="M63.3,48.8h-5v-3.4h13.9v3.4h-5v14.1h-3.9V48.8z"/>
	<path fill="#3E3E3E" d="M76.6,45.3h3.9v6.5H88v-6.5h3.9v17.6H88v-7.6h-7.5v7.6h-3.9V45.3z"/>
	<path fill="#3E3E3E" d="M98.1,45.3H110v3.6H102v3.3h7.6v3.6H102v3.6h8.5v3.6H98.1L98.1,45.3L98.1,45.3z"/>
</g>
</svg>
